#!OML:ASF F:\VICON\USERDATA\INSTALL\rory3\rory3.ASF
:FULLY-SPECIFIED
:DEGREES
76
root 5.16872 17.836 -15.3899 -1.75397 -4.92773 -3.58721
lowerback 10.9182 1.81693 3.88976
upperback 0.294396 2.97767 1.29402
thorax -5.68907 1.37475 -1.29425
lowerneck -16.6681 -3.28138 -1.75412
upperneck 22.0079 -4.09748 -0.047517
head 9.76736 -2.05221 -0.265883
rclavicle 1.35422e-014 1.49089e-014
rhumerus -24.5396 -16.9294 -78.9116
rradius 26.2091
rwrist 3.36683
rhand -15.6996 24.1099
rfingers 7.12502
rthumb 10.49 -5.60832
lclavicle 1.35422e-014 1.49089e-014
lhumerus -35.7599 12.9399 78.5949
lradius 18.3205
lwrist -1.68628
lhand -25.0938 22.4899
lfingers 7.12502
lthumb 1.421 52.4649
rfemur 1.15901 4.6549 26.4577
rtibia 54.7161
rfoot 11.4622 4.05394
rtoes 8.79708
lfemur -23.3239 -1.4116 -19.0252
ltibia 29.9769
lfoot -2.98323 -3.54304
ltoes 10.0637
77
root 5.19012 17.8448 -15.2133 -1.75702 -5.19405 -2.92206
lowerback 10.8862 1.8929 3.25254
upperback 0.325987 2.98754 1.14087
thorax -5.66055 1.39582 -1.09751
lowerneck -16.8171 -3.21654 -1.77419
upperneck 22.0655 -4.00724 -0.0144308
head 9.81617 -2.00744 -0.242414
rclavicle 3.60049e-014 2.18663e-015
rhumerus -24.6086 -17.207 -78.8613
rradius 25.8753
rwrist 3.48082
rhand -14.0492 26.3541
rfingers 7.12502
rthumb 12.0817 -3.27715
lclavicle 3.60049e-014 2.18663e-015
lhumerus -35.6403 12.3027 79.0438
lradius 18.761
lwrist -0.905726
lhand -25.409 22.1284
lfingers 7.12502
lthumb 1.11654 52.1052
rfemur -0.691849 4.80966 25.4697
rtibia 57.4449
rfoot 13.5698 3.99945
rtoes 12.9958
lfemur -22.6699 -1.1106 -19.9187
ltibia 29.9505
lfoot -3.61331 -3.30962
ltoes 9.2049
78
root 5.20616 17.8528 -15.0213 -1.84662 -5.44299 -2.48043
lowerback 10.7938 1.98728 2.81364
upperback 0.442925 3.04478 1.0297
thorax -5.4994 1.43812 -0.970161
lowerneck -17.0869 -3.16167 -1.65895
upperneck 22.1621 -3.93714 -0.0984297
head 9.89581 -1.9736 -0.287199
rclavicle 1.24613e-014 6.75868e-015
rhumerus -24.6863 -17.3863 -78.8674
rradius 25.9111
rwrist 3.80064
rhand -11.1963 28.3362
rfingers 7.12502
rthumb 14.8313 -1.11304
lclavicle 1.24613e-014 6.75868e-015
lhumerus -35.292 11.4825 79.5518
lradius 19.0759
lwrist -0.265168
lhand -25.751 21.0944
lfingers 7.12502
lthumb 0.786221 51.0727
rfemur -2.36773 4.83542 24.8021
rtibia 60.039
rfoot 15.6571 4.15366
rtoes 17.9783
lfemur -21.8799 -1.07248 -20.5126
ltibia 29.9721
lfoot -4.27119 -2.92144
ltoes 4.7492
79
root 5.22133 17.8669 -14.8244 -1.97602 -5.46489 -1.86584
lowerback 10.6557 2.00923 2.28962
upperback 0.523071 2.99127 0.815543
thorax -5.35412 1.42554 -0.884733
lowerneck -16.9068 -3.13321 -1.66583
upperneck 22.0163 -3.94595 0.0951861
head 9.8148 -1.95687 -0.214995
rclavicle 2.04748e-014 2.98177e-015
rhumerus -24.7462 -17.6031 -78.9685
rradius 25.8159
rwrist 4.4851
rhand -14.0664 28.5211
rfingers 7.12502
rthumb 12.0651 -1.11106
lclavicle 2.04748e-014 2.98177e-015
lhumerus -34.9697 10.6875 79.902
lradius 19.2757
lwrist 0.298644
lhand -25.9992 19.2486
lfingers 7.12502
lthumb 0.546562 49.2277
rfemur -3.85269 4.55052 23.8831
rtibia 62.4454
rfoot 14.8241 3.34787
rtoes 15.8621
lfemur -21.0077 -1.12961 -21.3432
ltibia 29.96
lfoot -4.83416 -2.56732
ltoes 5.83237
80
root 5.23797 17.8831 -14.6437 -2.14236 -5.4038 -1.34954
lowerback 10.8058 1.96409 1.80644
upperback 0.513084 2.87017 0.696016
thorax -5.46943 1.37472 -0.727177
lowerneck -16.6478 -3.09304 -1.58551
upperneck 21.818 -3.90501 0.0558085
head 9.69298 -1.93788 -0.229849
rclavicle -2.07854e-014 -9.14409e-015
rhumerus -24.8836 -17.3891 -79.1009
rradius 25.5486
rwrist 4.4043
rhand -14.6648 26.0437
rfingers 7.12502
rthumb 11.4881 -3.62148
lclavicle -2.07854e-014 -9.14409e-015
lhumerus -34.9199 10.1603 80.1867
lradius 19.6399
lwrist 0.843489
lhand -25.9998 19.6287
lfingers 7.12502
lthumb 0.545982 49.6077
rfemur -5.25404 4.23956 23.1355
rtibia 64.6615
rfoot 13.3886 2.05642
rtoes 13.5761
lfemur -20.1541 -1.24154 -22.087
ltibia 29.8994
lfoot -5.38219 -2.30528
ltoes 6.79784
81
root 5.24945 17.9033 -14.4656 -2.21571 -5.41132 -1.1928
lowerback 11.0296 1.87497 1.54769
upperback 0.442022 2.73075 0.773633
thorax -5.68872 1.31061 -0.490077
lowerneck -16.611 -2.97314 -1.57563
upperneck 21.8199 -3.69899 -0.115342
head 9.68131 -1.86177 -0.263019
rclavicle -1.72694e-015 -1.19271e-015
rhumerus -24.9934 -16.8469 -79.2175
rradius 25.3064
rwrist 4.57634
rhand -15.1599 15.4393
rfingers 7.12502
rthumb 11.0105 -14.2519
lclavicle -1.72694e-015 -1.19271e-015
lhumerus -34.9266 10.1819 80.3389
lradius 19.9585
lwrist 0.969799
lhand -25.8932 20.8724
lfingers 7.12502
lthumb 0.648869 50.8512
rfemur -6.76627 4.03035 22.8763
rtibia 66.6612
rfoot 11.7302 0.139056
rtoes 10.1441
lfemur -19.3482 -1.39802 -22.3865
ltibia 29.7586
lfoot -5.85756 -1.90345
ltoes 6.81765
82
root 5.25658 17.9192 -14.2892 -2.33218 -5.23381 -1.09456
lowerback 11.1981 1.72537 1.32835
upperback 0.425533 2.51339 0.862774
thorax -5.81773 1.20932 -0.246021
lowerneck -16.4342 -2.89499 -1.64168
upperneck 21.8917 -3.56182 -0.174284
head 9.67296 -1.81128 -0.252329
rclavicle 3.49364e-014 1.11319e-014
rhumerus -25.1454 -16.4073 -79.3146
rradius 25.3142
rwrist 4.77354
rhand -15.2194 12.2559
rfingers 7.12502
rthumb 10.9531 -17.4384
lclavicle 3.49364e-014 1.11319e-014
lhumerus -34.9203 9.86486 80.6046
lradius 20.2831
lwrist 1.37471
lhand -26.288 20.5689
lfingers 7.12502
lthumb 0.267543 50.5485
rfemur -8.21732 3.59933 22.7161
rtibia 68.4823
rfoot 9.91293 -1.60111
rtoes 8.71482
lfemur -18.4883 -1.58646 -22.6122
ltibia 29.5541
lfoot -6.2806 -1.6449
ltoes 6.22744
83
root 5.26548 17.9339 -14.1096 -2.52677 -5.10288 -0.865999
lowerback 11.6547 1.61868 1.08034
upperback 0.27699 2.34877 0.839254
thorax -6.24178 1.13073 -0.122006
lowerneck -16.3089 -2.86558 -1.67557
upperneck 22.1711 -3.50876 -0.208665
head 9.74804 -1.79389 -0.2526
rclavicle 2.58172e-014 1.61016e-014
rhumerus -25.6548 -16.2567 -79.3244
rradius 25.3852
rwrist 5.03435
rhand -15.1735 13.4009
rfingers 7.12502
rthumb 10.9974 -16.2911
lclavicle 2.58172e-014 1.61016e-014
lhumerus -35.2538 8.95431 80.9697
lradius 20.995
lwrist 2.14247
lhand -25.7853 23.7686
lfingers 7.12502
lthumb 0.753063 53.747
rfemur -9.46333 3.20824 22.3871
rtibia 70.0851
rfoot 8.41154 -2.82234
rtoes 9.17694
lfemur -17.5205 -1.60629 -23.0033
ltibia 29.3517
lfoot -6.60062 -1.47061
ltoes 5.77257
84
root 5.27717 17.9454 -13.9334 -2.69129 -4.99255 -0.522671
lowerback 11.7629 1.54398 0.730364
upperback 0.293907 2.20023 0.784679
thorax -6.29662 1.06715 0.0395574
lowerneck -16.1402 -2.83099 -1.62663
upperneck 22.1529 -3.4563 -0.293329
head 9.7069 -1.77608 -0.280307
rclavicle 1.19395e-014 1.05356e-014
rhumerus -25.9402 -16.6816 -79.2406
rradius 25.455
rwrist 5.78281
rhand -15.2117 14.3322
rfingers 7.12502
rthumb 10.9606 -15.3617
lclavicle 1.19395e-014 1.05356e-014
lhumerus -35.1926 8.59791 81.1688
lradius 21.4124
lwrist 2.54308
lhand -25.3884 26.0545
lfingers 7.12502
lthumb 1.13642 56.0313
rfemur -10.7779 2.76538 21.8618
rtibia 71.5158
rfoot 7.6751 -3.71046
rtoes 10.816
lfemur -16.6006 -1.63072 -23.5277
ltibia 29.1147
lfoot -6.99329 -1.04778
ltoes 2.92223
85
root 5.28507 17.9652 -13.7575 -2.67007 -4.86249 -0.478913
lowerback 11.6036 1.45267 0.687877
upperback 0.408323 2.07122 0.810185
thorax -6.08873 1.00702 0.118111
lowerneck -16.2887 -2.83418 -1.64629
upperneck 22.1059 -3.44253 -0.33194
head 9.71771 -1.77538 -0.290567
rclavicle 3.91606e-014 1.53064e-014
rhumerus -25.9182 -17.1242 -79.2055
rradius 25.6402
rwrist 6.16657
rhand -15.9719 20.2033
rfingers 7.12502
rthumb 10.2273 -9.5281
lclavicle 3.91606e-014 1.53064e-014
lhumerus -34.7789 8.24985 81.411
lradius 21.6998
lwrist 2.70534
lhand -26.2198 20.7263
lfingers 7.12502
lthumb 0.333482 50.7058
rfemur -12.257 2.44003 21.7708
rtibia 72.6922
rfoot 6.95072 -4.56683
rtoes 11.5952
lfemur -15.9062 -1.56714 -23.6978
ltibia 28.8996
lfoot -7.91682 -0.835475
ltoes 0.198363
